<svg xmlns="http://www.w3.org/2000/svg" viewBox="0 0 100 100" fill="none">
  <!-- Head -->
  <circle cx="50" cy="40" r="32" stroke="#0B1E47" stroke-width="3" fill="#fff"/>
  <!-- Eyes - Focused reading -->
  <circle cx="40" cy="38" r="4" fill="#0B1E47"/>
  <circle cx="60" cy="38" r="4" fill="#0B1E47"/>
  <circle cx="41" cy="37" r="1.5" fill="#fff"/>
  <circle cx="61" cy="37" r="1.5" fill="#fff"/>
  <!-- Concentrated expression -->
  <path d="M44 50 L56 50" stroke="#0B1E47" stroke-width="2" stroke-linecap="round"/>
  <!-- Book -->
  <rect x="25" y="70" width="50" height="25" rx="2" stroke="#0B1E47" stroke-width="2" fill="#fff"/>
  <line x1="50" y1="70" x2="50" y2="95" stroke="#0B1E47" stroke-width="2"/>
  <line x1="30" y1="76" x2="45" y2="76" stroke="#00A8A8" stroke-width="1.5"/>
  <line x1="30" y1="81" x2="45" y2="81" stroke="#00A8A8" stroke-width="1.5"/>
  <line x1="30" y1="86" x2="42" y2="86" stroke="#00A8A8" stroke-width="1.5"/>
  <line x1="55" y1="76" x2="70" y2="76" stroke="#00A8A8" stroke-width="1.5"/>
  <line x1="55" y1="81" x2="70" y2="81" stroke="#00A8A8" stroke-width="1.5"/>
  <line x1="55" y1="86" x2="68" y2="86" stroke="#00A8A8" stroke-width="1.5"/>
  <!-- Antenna/hair tuft -->
  <path d="M50 8 Q55 3 52 12" stroke="#0B1E47" stroke-width="2" stroke-linecap="round" fill="none"/>
  <circle cx="50" cy="6" r="3" fill="#00A8A8"/>
</svg>
