<svg xmlns="http://www.w3.org/2000/svg" viewBox="0 0 100 100" fill="none">
  <!-- Wavy lines showing anxiety -->
  <path d="M15 25 Q20 20 25 25 Q30 30 35 25" stroke="#FFB74D" stroke-width="2" fill="none" opacity="0.6"/>
  <path d="M65 20 Q70 15 75 20 Q80 25 85 20" stroke="#FFB74D" stroke-width="2" fill="none" opacity="0.6"/>
  <!-- Head -->
  <circle cx="50" cy="50" r="35" stroke="#0B1E47" stroke-width="3" fill="#fff"/>
  <!-- Worried eyes - wide -->
  <ellipse cx="38" cy="45" rx="6" ry="7" fill="#0B1E47"/>
  <ellipse cx="62" cy="45" rx="6" ry="7" fill="#0B1E47"/>
  <circle cx="40" cy="43" r="2.5" fill="#fff"/>
  <circle cx="64" cy="43" r="2.5" fill="#fff"/>
  <!-- Worried eyebrows -->
  <path d="M30 36 L44 40" stroke="#0B1E47" stroke-width="2" stroke-linecap="round"/>
  <path d="M70 36 L56 40" stroke="#0B1E47" stroke-width="2" stroke-linecap="round"/>
  <!-- Wavy worried mouth -->
  <path d="M38 62 Q44 58 50 62 Q56 66 62 62" stroke="#0B1E47" stroke-width="2.5" stroke-linecap="round" fill="none"/>
  <!-- Sweat drop -->
  <ellipse cx="75" cy="42" rx="3" ry="5" fill="#E3F2FD" stroke="#64B5F6" stroke-width="1"/>
  <!-- Antenna - alert -->
  <path d="M50 15 Q55 8 52 18" stroke="#0B1E47" stroke-width="2" stroke-linecap="round" fill="none"/>
  <circle cx="50" cy="12" r="4" fill="#FFB74D"/>
</svg>
